<svg xmlns="http://www.w3.org/2000/svg" viewBox="0 0 504 504" style="enable-background:new 0 0 504 504" xml:space="preserve"><path d="M250.8 176h-55.2c-10.4 0-19.2 7.6-19.2 18s8.8 18 19.2 18h55.2c10.4 0 19.2-7.6 19.2-18s-8.4-18-19.2-18zM308 288H195.6c-10.4 0-19.2 9.6-19.2 20s8.4 20 19.2 20H308c10.4 0 18.8-9.6 18.8-20s-8.4-20-18.8-20z"/><path d="M377.6 0H126C56.8 0 0 56.8 0 126.4V378c0 69.2 56.8 126 126 126h251.6c69.6 0 126.4-56.8 126.4-126.4V126.4C504 56.8 447.2 0 377.6 0zm31.2 309.6c-.4 54.4-45.2 98.4-100 98.4H194.4c-54.8 0-98.4-43.6-98.4-98V194c0-54.4 43.6-98 98.4-98H264c25.6 0 63.2 24.4 76.8 53.6 3.6 8 6 9.2 8.8 33.6 1.6 12.4 2.4 21.6 8 26.8 8 7.2 37.2 2.4 43.2 6.8l4.4 3.6 2.8 5.6.8 4v79.6z"/></svg>